<svg width="1868" height="3" viewBox="0 0 1868 3" fill="none" xmlns="http://www.w3.org/2000/svg">
<line x1="-1.1558e-10" y1="1.5" x2="12.1615" y2="1.5" stroke="black" stroke-width="3"/>
<line x1="20.6744" y1="1.5" x2="32.8359" y2="1.5" stroke="black" stroke-width="3"/>
<line x1="41.349" y1="1.5" x2="53.5105" y2="1.5" stroke="black" stroke-width="3"/>
<line x1="62.0234" y1="1.5" x2="74.1849" y2="1.5" stroke="black" stroke-width="3"/>
<line x1="82.6979" y1="1.5" x2="94.8593" y2="1.5" stroke="black" stroke-width="3"/>
<line x1="103.372" y1="1.5" x2="115.534" y2="1.5" stroke="black" stroke-width="3"/>
<line x1="124.047" y1="1.5" x2="136.208" y2="1.5" stroke="black" stroke-width="3"/>
<line x1="144.721" y1="1.5" x2="156.883" y2="1.5" stroke="black" stroke-width="3"/>
<line x1="165.396" y1="1.5" x2="177.557" y2="1.5" stroke="black" stroke-width="3"/>
<line x1="186.07" y1="1.5" x2="198.232" y2="1.5" stroke="black" stroke-width="3"/>
<line x1="206.745" y1="1.5" x2="218.906" y2="1.5" stroke="black" stroke-width="3"/>
<line x1="227.419" y1="1.5" x2="239.581" y2="1.5" stroke="black" stroke-width="3"/>
<line x1="248.094" y1="1.5" x2="260.255" y2="1.5" stroke="black" stroke-width="3"/>
<line x1="268.768" y1="1.5" x2="280.93" y2="1.5" stroke="black" stroke-width="3"/>
<line x1="289.443" y1="1.5" x2="301.604" y2="1.5" stroke="black" stroke-width="3"/>
<line x1="310.117" y1="1.5" x2="322.279" y2="1.5" stroke="black" stroke-width="3"/>
<line x1="330.792" y1="1.5" x2="342.953" y2="1.5" stroke="black" stroke-width="3"/>
<line x1="351.466" y1="1.5" x2="363.628" y2="1.5" stroke="black" stroke-width="3"/>
<line x1="372.141" y1="1.5" x2="384.302" y2="1.5" stroke="black" stroke-width="3"/>
<line x1="392.815" y1="1.5" x2="404.977" y2="1.5" stroke="black" stroke-width="3"/>
<line x1="412.273" y1="1.5" x2="424.435" y2="1.5" stroke="black" stroke-width="3"/>
<line x1="432.948" y1="1.5" x2="445.109" y2="1.5" stroke="black" stroke-width="3"/>
<line x1="453.622" y1="1.5" x2="465.784" y2="1.5" stroke="black" stroke-width="3"/>
<line x1="474.297" y1="1.5" x2="486.458" y2="1.5" stroke="black" stroke-width="3"/>
<line x1="494.971" y1="1.5" x2="507.133" y2="1.5" stroke="black" stroke-width="3"/>
<line x1="515.646" y1="1.5" x2="527.807" y2="1.5" stroke="black" stroke-width="3"/>
<line x1="536.32" y1="1.5" x2="548.482" y2="1.5" stroke="black" stroke-width="3"/>
<line x1="556.995" y1="1.5" x2="569.156" y2="1.5" stroke="black" stroke-width="3"/>
<line x1="577.669" y1="1.5" x2="589.831" y2="1.5" stroke="black" stroke-width="3"/>
<line x1="598.344" y1="1.5" x2="610.505" y2="1.5" stroke="black" stroke-width="3"/>
<line x1="619.018" y1="1.5" x2="631.18" y2="1.5" stroke="black" stroke-width="3"/>
<line x1="639.693" y1="1.5" x2="651.854" y2="1.5" stroke="black" stroke-width="3"/>
<line x1="660.367" y1="1.5" x2="672.529" y2="1.5" stroke="black" stroke-width="3"/>
<line x1="681.042" y1="1.5" x2="693.203" y2="1.5" stroke="black" stroke-width="3"/>
<line x1="701.716" y1="1.5" x2="713.878" y2="1.5" stroke="black" stroke-width="3"/>
<line x1="722.391" y1="1.5" x2="734.552" y2="1.5" stroke="black" stroke-width="3"/>
<line x1="743.065" y1="1.5" x2="755.227" y2="1.5" stroke="black" stroke-width="3"/>
<line x1="763.74" y1="1.5" x2="775.901" y2="1.5" stroke="black" stroke-width="3"/>
<line x1="784.414" y1="1.5" x2="796.576" y2="1.5" stroke="black" stroke-width="3"/>
<line x1="805.089" y1="1.5" x2="817.25" y2="1.5" stroke="black" stroke-width="3"/>
<line x1="823.331" y1="1.5" x2="835.492" y2="1.5" stroke="black" stroke-width="3"/>
<line x1="844.005" y1="1.5" x2="856.167" y2="1.5" stroke="black" stroke-width="3"/>
<line x1="864.68" y1="1.5" x2="876.841" y2="1.5" stroke="black" stroke-width="3"/>
<line x1="885.354" y1="1.5" x2="897.516" y2="1.5" stroke="black" stroke-width="3"/>
<line x1="906.029" y1="1.5" x2="918.19" y2="1.5" stroke="black" stroke-width="3"/>
<line x1="926.703" y1="1.5" x2="938.865" y2="1.5" stroke="black" stroke-width="3"/>
<line x1="947.378" y1="1.5" x2="959.539" y2="1.5" stroke="black" stroke-width="3"/>
<line x1="968.052" y1="1.5" x2="980.214" y2="1.5" stroke="black" stroke-width="3"/>
<line x1="988.727" y1="1.5" x2="1000.89" y2="1.5" stroke="black" stroke-width="3"/>
<line x1="1009.4" y1="1.5" x2="1021.56" y2="1.5" stroke="black" stroke-width="3"/>
<line x1="1030.08" y1="1.5" x2="1042.24" y2="1.5" stroke="black" stroke-width="3"/>
<line x1="1050.75" y1="1.5" x2="1062.91" y2="1.5" stroke="black" stroke-width="3"/>
<line x1="1071.42" y1="1.5" x2="1083.59" y2="1.5" stroke="black" stroke-width="3"/>
<line x1="1092.1" y1="1.5" x2="1104.26" y2="1.5" stroke="black" stroke-width="3"/>
<line x1="1112.77" y1="1.5" x2="1124.93" y2="1.5" stroke="black" stroke-width="3"/>
<line x1="1133.45" y1="1.5" x2="1145.61" y2="1.5" stroke="black" stroke-width="3"/>
<line x1="1154.12" y1="1.5" x2="1166.28" y2="1.5" stroke="black" stroke-width="3"/>
<line x1="1174.8" y1="1.5" x2="1186.96" y2="1.5" stroke="black" stroke-width="3"/>
<line x1="1195.47" y1="1.5" x2="1207.63" y2="1.5" stroke="black" stroke-width="3"/>
<line x1="1216.15" y1="1.5" x2="1228.31" y2="1.5" stroke="black" stroke-width="3"/>
<line x1="1234.39" y1="1.5" x2="1246.55" y2="1.5" stroke="black" stroke-width="3"/>
<line x1="1255.06" y1="1.5" x2="1267.22" y2="1.5" stroke="black" stroke-width="3"/>
<line x1="1275.74" y1="1.5" x2="1287.9" y2="1.5" stroke="black" stroke-width="3"/>
<line x1="1296.41" y1="1.5" x2="1308.57" y2="1.5" stroke="black" stroke-width="3"/>
<line x1="1317.09" y1="1.5" x2="1329.25" y2="1.5" stroke="black" stroke-width="3"/>
<line x1="1337.76" y1="1.5" x2="1349.92" y2="1.5" stroke="black" stroke-width="3"/>
<line x1="1358.43" y1="1.5" x2="1370.6" y2="1.5" stroke="black" stroke-width="3"/>
<line x1="1379.11" y1="1.5" x2="1391.27" y2="1.5" stroke="black" stroke-width="3"/>
<line x1="1399.78" y1="1.5" x2="1411.95" y2="1.5" stroke="black" stroke-width="3"/>
<line x1="1420.46" y1="1.5" x2="1432.62" y2="1.5" stroke="black" stroke-width="3"/>
<line x1="1441.13" y1="1.5" x2="1453.29" y2="1.5" stroke="black" stroke-width="3"/>
<line x1="1461.81" y1="1.5" x2="1473.97" y2="1.5" stroke="black" stroke-width="3"/>
<line x1="1482.48" y1="1.5" x2="1494.64" y2="1.5" stroke="black" stroke-width="3"/>
<line x1="1503.16" y1="1.5" x2="1515.32" y2="1.5" stroke="black" stroke-width="3"/>
<line x1="1523.83" y1="1.5" x2="1535.99" y2="1.5" stroke="black" stroke-width="3"/>
<line x1="1544.51" y1="1.5" x2="1556.67" y2="1.5" stroke="black" stroke-width="3"/>
<line x1="1565.18" y1="1.5" x2="1577.34" y2="1.5" stroke="black" stroke-width="3"/>
<line x1="1585.85" y1="1.5" x2="1598.02" y2="1.5" stroke="black" stroke-width="3"/>
<line x1="1606.53" y1="1.5" x2="1618.69" y2="1.5" stroke="black" stroke-width="3"/>
<line x1="1627.2" y1="1.5" x2="1639.36" y2="1.5" stroke="black" stroke-width="3"/>
<line x1="1649.09" y1="1.5" x2="1661.26" y2="1.5" stroke="black" stroke-width="3"/>
<line x1="1669.77" y1="1.5" x2="1681.93" y2="1.5" stroke="black" stroke-width="3"/>
<line x1="1690.44" y1="1.5" x2="1702.6" y2="1.5" stroke="black" stroke-width="3"/>
<line x1="1711.12" y1="1.5" x2="1723.28" y2="1.5" stroke="black" stroke-width="3"/>
<line x1="1731.79" y1="1.5" x2="1743.95" y2="1.5" stroke="black" stroke-width="3"/>
<line x1="1752.47" y1="1.5" x2="1764.63" y2="1.5" stroke="black" stroke-width="3"/>
<line x1="1773.14" y1="1.5" x2="1785.3" y2="1.5" stroke="black" stroke-width="3"/>
<line x1="1793.82" y1="1.5" x2="1805.98" y2="1.5" stroke="black" stroke-width="3"/>
<line x1="1814.49" y1="1.5" x2="1826.65" y2="1.5" stroke="black" stroke-width="3"/>
<line x1="1835.16" y1="1.5" x2="1847.33" y2="1.5" stroke="black" stroke-width="3"/>
<line x1="1855.84" y1="1.5" x2="1868" y2="1.5" stroke="black" stroke-width="3"/>
</svg>
